# xmcd
#
# Track frame offsets: 
#        150
#        14085
#        26108
#        45143
#        64950
#        79861
#        107326
#        124367
#        145240
#
# Disc length: 2228 seconds
#
# Revision: 0
# Processed by: cddbd v1.5.2PL0 Copyright (c) Steve Scherf et al.
# Submitted via: ExactAudioCopy v1.3
#
DISCID=7708b209
DTITLE=The Bluesanovas - Bluesanova
DYEAR=2018
DGENRE=Blues
TTITLE0=Daphne Blue
TTITLE1=Rock'n'Roll Music
TTITLE2=Red Headed Woman
TTITLE3=Funky Woman
TTITLE4=Baby I'm Gone
TTITLE5=Come On In This House
TTITLE6=Knee KO
TTITLE7=Scandalize My Name
TTITLE8=Born In Chicago
EXTD=
EXTT0=
EXTT1=
EXTT2=
EXTT3=
EXTT4=
EXTT5=
EXTT6=
EXTT7=
EXTT8=
PLAYORDER=
